# xmcd CD database file
#
# Track frame offsets:
#	150
#	16612
#	43521
#	64220
#	79512
#	89411
#	110748
#	125792
#
# Disc length: 1835 seconds
#
# Revision: 0
# Processed by: cddbd v1.5.1PL0 Copyright (c) Steve Scherf et al.
# Submitted via: CDex 1.51
#
DISCID=62072908
DTITLE=jazz-vås - A Brand New Bag
DYEAR=2002
DGENRE=Jazz
TTITLE0=Bruremarsj
TTITLE1=Domen
TTITLE2=Kjerringknut'n
TTITLE3=Baby You Got What It Takes
TTITLE4=Papa's Got A Brand New Bag
TTITLE5=Time
TTITLE6=The Wedding
TTITLE7=Walk Through The Streets Of The City
EXTD=YEAR: 2002
EXTT0=
EXTT1=
EXTT2=
EXTT3=
EXTT4=
EXTT5=
EXTT6=
EXTT7=
PLAYORDER=
